<svg width="52" height="52" viewBox="0 0 52 52" fill="none" xmlns="http://www.w3.org/2000/svg">
<g clip-path="url(#clip0_240_1515)">
<path d="M31.0443 26.3047C31.0443 25.7179 30.9766 24.9957 30.8411 24.138H18.5859V28.6068H25.9323C25.8646 29.1484 25.6784 29.7127 25.3737 30.2995C25.069 30.8863 24.6458 31.4844 24.1042 32.0938C23.5625 32.7031 22.8121 33.2053 21.8529 33.6003C20.8937 33.9952 19.8047 34.1927 18.5859 34.1927C16.3516 34.1927 14.4444 33.3915 12.8646 31.7891C11.2847 30.1866 10.4948 28.2569 10.4948 26C10.4948 23.7431 11.2847 21.8134 12.8646 20.2109C14.4444 18.6085 16.3516 17.8073 18.5859 17.8073C20.6623 17.8073 22.3889 18.4731 23.7656 19.8047L27.2865 16.3854C24.849 14.1285 21.9488 13 18.5859 13C14.9748 13 11.9054 14.2695 9.3776 16.8086C6.84983 19.3477 5.58594 22.4115 5.58594 26C5.58594 29.5885 6.84983 32.6523 9.3776 35.1914C11.9054 37.7305 14.9748 39 18.5859 39C22.3099 39 25.3173 37.8151 27.6081 35.4453C29.8989 33.0755 31.0443 30.0286 31.0443 26.3047ZM42.724 27.862H46.4141V24.138H42.724V20.4141H39V24.138H35.276V27.862H39V31.5859H42.724V27.862ZM52 9.75V42.25C52 44.9358 51.0464 47.2322 49.1393 49.1393C47.2322 51.0464 44.9358 52 42.25 52H9.75C7.06424 52 4.7678 51.0464 2.86068 49.1393C0.953559 47.2322 0 44.9358 0 42.25V9.75C0 7.06424 0.953559 4.7678 2.86068 2.86068C4.7678 0.953559 7.06424 0 9.75 0H42.25C44.9358 0 47.2322 0.953559 49.1393 2.86068C51.0464 4.7678 52 7.06424 52 9.75Z" fill="white"/>
</g>
<defs>
<clipPath id="clip0_240_1515">
<rect width="52" height="52" fill="white"/>
</clipPath>
</defs>
</svg>
