<svg width="52" height="52" viewBox="0 0 52 52" fill="none" xmlns="http://www.w3.org/2000/svg">
<g clip-path="url(#clip0_240_1517)">
<path d="M26.0002 17.3333C23.7016 17.3333 21.4972 18.2464 19.8719 19.8718C18.2466 21.4971 17.3335 23.7015 17.3335 26C17.3335 28.2986 18.2466 30.503 19.8719 32.1283C21.4972 33.7536 23.7016 34.6667 26.0002 34.6667C28.2987 34.6667 30.5031 33.7536 32.1284 32.1283C33.7537 30.503 34.6668 28.2986 34.6668 26C34.6668 23.7015 33.7537 21.4971 32.1284 19.8718C30.5031 18.2464 28.2987 17.3333 26.0002 17.3333Z" fill="white"/>
<path fill-rule="evenodd" clip-rule="evenodd" d="M15.6 0C11.4626 0 7.4947 1.64357 4.56913 4.56913C1.64357 7.4947 0 11.4626 0 15.6L0 36.4C0 40.5374 1.64357 44.5053 4.56913 47.4309C7.4947 50.3564 11.4626 52 15.6 52H36.4C40.5374 52 44.5053 50.3564 47.4309 47.4309C50.3564 44.5053 52 40.5374 52 36.4V15.6C52 11.4626 50.3564 7.4947 47.4309 4.56913C44.5053 1.64357 40.5374 0 36.4 0L15.6 0ZM13.8667 26C13.8667 22.782 15.145 19.6959 17.4204 17.4204C19.6959 15.145 22.782 13.8667 26 13.8667C29.218 13.8667 32.3041 15.145 34.5796 17.4204C36.855 19.6959 38.1333 22.782 38.1333 26C38.1333 29.218 36.855 32.3041 34.5796 34.5796C32.3041 36.855 29.218 38.1333 26 38.1333C22.782 38.1333 19.6959 36.855 17.4204 34.5796C15.145 32.3041 13.8667 29.218 13.8667 26ZM38.1333 13.8667H41.6V10.4H38.1333V13.8667Z" fill="white"/>
</g>
<defs>
<clipPath id="clip0_240_1517">
<rect width="52" height="52" fill="white"/>
</clipPath>
</defs>
</svg>
